<?xml version="1.0" encoding="UTF-8" ?>
<!DOCTYPE svg PUBLIC "-//W3C//DTD SVG 1.1//EN" "http://www.w3.org/Graphics/SVG/1.1/DTD/svg11.dtd">
<svg width="210pt" height="185pt" viewBox="0 0 210 185" version="1.1" xmlns="http://www.w3.org/2000/svg">
<path fill="#ffffff" d=" M 0.00 0.00 L 210.00 0.00 L 210.00 185.00 L 0.00 185.00 L 0.00 0.00 Z" />
<path fill="#0c00ff" d=" M 145.90 39.06 C 150.65 35.22 155.37 31.02 161.23 28.96 C 163.87 28.56 167.19 28.70 168.76 31.26 C 171.06 35.08 170.76 41.29 166.25 43.40 C 162.84 45.72 159.40 42.08 156.36 40.72 C 153.29 38.50 149.43 39.21 145.90 39.06 Z" />
<path fill="#593e38" d=" M 103.62 39.92 C 106.47 38.60 109.40 37.46 112.33 36.33 C 112.93 38.09 113.45 39.88 113.96 41.68 C 121.35 41.43 128.48 38.92 135.86 38.57 C 136.77 41.96 137.69 45.36 138.47 48.78 C 132.08 52.57 125.70 56.38 119.32 60.18 C 119.76 62.04 120.17 63.92 120.40 65.82 C 117.50 66.79 114.65 67.89 111.74 68.81 C 108.86 59.23 106.34 49.55 103.62 39.92 Z" />
<path fill="#c90000" d=" M 68.81 63.79 C 79.90 59.52 91.08 55.44 102.09 50.98 C 103.49 54.10 104.17 57.47 105.11 60.75 C 95.71 64.62 86.14 68.05 76.66 71.74 C 73.31 72.87 70.06 74.32 67.15 76.35 C 67.14 77.75 67.12 79.15 67.09 80.56 C 67.86 81.31 68.62 82.08 69.36 82.86 C 92.91 82.92 116.46 82.83 140.01 82.90 C 149.27 83.21 155.36 94.05 152.50 102.44 C 151.24 107.19 147.45 111.32 142.86 113.02 C 118.34 113.26 93.80 113.07 69.26 113.11 C 66.97 114.92 66.69 117.84 67.29 120.53 C 68.53 122.35 70.88 122.99 72.98 122.89 C 94.67 122.84 116.35 122.92 138.04 122.85 C 140.41 122.88 142.97 122.56 145.08 123.91 C 150.12 125.73 152.06 131.33 153.09 136.11 C 153.81 142.68 149.92 150.77 142.99 152.10 C 114.63 152.14 86.27 152.15 57.91 152.09 C 57.85 148.75 57.85 145.42 57.91 142.08 C 85.81 141.88 113.73 142.31 141.62 141.86 C 142.39 141.07 143.17 140.30 143.97 139.54 C 144.14 137.12 143.63 134.78 141.78 133.11 C 120.19 133.15 98.60 133.11 77.01 133.13 C 72.91 133.08 68.42 133.81 64.91 131.16 C 56.59 126.26 55.38 113.75 61.87 106.88 C 64.31 104.56 67.47 102.74 70.93 102.87 C 93.91 102.85 116.89 102.94 139.86 102.83 C 142.43 102.90 144.04 100.39 143.93 98.03 C 144.18 94.95 140.62 93.19 137.96 93.14 C 114.65 93.07 91.34 93.20 68.03 93.08 C 61.44 91.61 57.40 84.51 57.81 78.00 C 57.51 71.33 63.11 66.18 68.81 63.79 Z" />
</svg>
