<?xml version="1.0" encoding="UTF-8" ?>
<!DOCTYPE svg PUBLIC "-//W3C//DTD SVG 1.1//EN" "http://www.w3.org/Graphics/SVG/1.1/DTD/svg11.dtd">
<svg width="202pt" height="176pt" viewBox="0 0 202 176" version="1.1" xmlns="http://www.w3.org/2000/svg">
<path fill="#ffffff" d=" M 0.00 0.00 L 202.00 0.00 L 202.00 176.00 L 0.00 176.00 L 0.00 0.00 Z" />
<path fill="#7b77cd" d=" M 61.21 22.15 C 62.64 21.04 64.72 23.42 63.55 24.74 C 62.13 25.86 60.04 23.46 61.21 22.15 Z" />
<path fill="#7e7ecd" d=" M 128.19 21.97 C 130.78 21.13 129.99 25.43 127.84 25.02 C 126.15 24.71 126.93 22.33 128.19 21.97 Z" />
<path fill="#8482cf" d=" M 65.08 26.46 C 66.39 25.29 68.62 27.40 67.56 28.79 C 66.24 30.14 63.87 27.87 65.08 26.46 Z" />
<path fill="#8686cd" d=" M 124.36 26.14 C 126.46 25.35 126.59 28.70 124.77 29.04 C 122.63 29.84 122.56 26.49 124.36 26.14 Z" />
<path fill="#26ff79" d=" M 77.92 29.08 C 89.24 28.66 100.58 28.93 111.91 28.93 C 111.92 29.73 111.92 31.34 111.93 32.14 C 111.22 32.12 109.80 32.08 109.09 32.06 C 109.15 36.98 109.11 41.89 109.15 46.81 C 110.08 47.21 111.01 47.61 111.94 48.02 C 112.12 74.19 111.86 100.36 112.08 126.54 C 110.67 127.66 109.30 128.82 107.96 130.02 L 109.76 129.56 C 109.30 130.02 108.38 130.93 107.92 131.39 C 107.24 131.50 105.89 131.72 105.21 131.83 C 104.25 130.35 103.29 128.89 102.37 127.39 C 103.89 124.77 105.45 122.17 107.07 119.61 C 104.47 121.85 101.64 123.82 98.58 125.39 C 98.59 126.70 98.60 128.01 98.55 129.33 C 98.47 129.53 98.31 129.94 98.23 130.15 C 97.73 131.28 97.17 132.39 96.64 133.51 C 96.02 133.82 94.78 134.44 94.16 134.76 C 94.20 134.10 94.27 132.78 94.31 132.12 C 93.83 131.88 92.88 131.41 92.40 131.18 C 93.26 129.90 94.12 128.62 95.00 127.36 C 93.29 128.91 91.39 130.21 89.45 131.45 C 88.85 130.55 88.25 129.66 87.63 128.78 L 86.29 127.99 C 85.86 127.57 85.43 127.16 85.01 126.75 C 83.45 124.72 81.91 122.60 79.83 121.06 C 81.09 122.57 82.30 124.12 83.68 125.53 C 83.90 126.22 84.36 127.60 84.59 128.29 L 84.63 128.43 L 84.72 128.52 C 85.35 129.84 86.24 131.11 86.52 132.58 C 86.45 133.23 86.32 134.51 86.25 135.15 C 83.42 133.91 80.88 132.16 78.12 130.80 C 77.96 127.63 77.75 124.47 77.37 121.32 L 77.36 120.43 C 77.64 118.94 77.85 117.43 77.88 115.92 C 77.91 93.91 77.81 71.89 77.92 49.89 C 77.49 47.90 79.57 47.35 80.83 46.45 C 80.91 41.68 80.84 36.92 80.93 32.15 C 80.16 32.09 78.62 31.96 77.85 31.90 C 77.86 31.19 77.90 29.78 77.92 29.08 Z" />
<path fill="#6e6acd" d=" M 69.19 30.59 C 70.69 29.91 72.00 32.51 70.88 33.54 C 69.33 34.29 68.08 31.64 69.19 30.59 Z" />
<path fill="#8e8ad0" d=" M 120.65 30.68 C 123.43 28.16 121.37 35.55 119.74 33.34 C 118.68 32.57 120.03 31.27 120.65 30.68 Z" />
<path fill="#7d7dcf" d=" M 72.46 35.22 C 73.84 33.95 75.97 36.44 74.86 37.77 C 73.44 38.94 71.46 36.56 72.46 35.22 Z" />
<path fill="#5757cd" d=" M 116.48 35.31 C 119.88 33.58 117.26 40.10 115.78 36.89 C 115.96 36.49 116.31 35.71 116.48 35.31 Z" />
<path fill="#5454cd" d=" M 51.06 41.36 C 54.36 41.56 49.51 44.38 51.06 41.36 Z" />
<path fill="#615dcd" d=" M 55.08 41.25 C 56.03 39.93 58.74 41.26 57.60 42.77 C 56.64 44.14 53.84 42.82 55.08 41.25 Z" />
<path fill="#4a46cd" d=" M 60.22 41.29 C 61.20 40.01 63.99 41.32 62.77 42.84 C 61.77 44.07 58.95 42.84 60.22 41.29 Z" />
<path fill="#5e5bcd" d=" M 65.38 41.31 C 66.33 39.91 69.09 41.24 67.93 42.81 C 66.98 44.12 64.23 42.85 65.38 41.31 Z" />
<path fill="#5b57cd" d=" M 71.14 41.25 C 72.09 39.93 74.79 41.28 73.65 42.79 C 72.67 44.14 69.89 42.81 71.14 41.25 Z" />
<path fill="#5955cd" d=" M 116.34 41.29 C 117.31 39.93 120.07 41.28 118.87 42.83 C 117.89 44.10 115.14 42.82 116.34 41.29 Z" />
<path fill="#615ecd" d=" M 122.08 41.24 C 123.04 39.93 125.74 41.27 124.59 42.77 C 123.62 44.14 120.82 42.80 122.08 41.24 Z" />
<path fill="#4a46cd" d=" M 127.19 41.33 C 128.12 40.01 130.93 41.22 129.81 42.79 C 128.86 44.05 126.00 42.92 127.19 41.33 Z" />
<path fill="#5e5acd" d=" M 132.40 41.28 C 133.37 39.90 136.11 41.30 134.90 42.84 C 133.92 44.12 131.20 42.80 132.40 41.28 Z" />
<path fill="#5353cd" d=" M 138.14 41.34 C 141.42 41.62 136.51 44.32 138.14 41.34 Z" />
<path fill="#8484cf" d=" M 73.32 46.18 C 75.91 45.46 75.03 49.69 72.88 49.19 C 71.17 48.87 72.03 46.46 73.32 46.18 Z" />
<path fill="#8381d0" d=" M 115.43 46.37 C 116.81 45.26 118.99 47.55 117.80 48.89 C 116.38 50.02 114.22 47.71 115.43 46.37 Z" />
<path fill="#9795d2" d=" M 69.66 50.45 C 71.97 49.41 70.77 54.97 68.40 53.70 C 67.42 52.35 68.83 51.39 69.66 50.45 Z" />
<path fill="#7573cd" d=" M 119.33 51.01 C 120.64 50.00 122.66 52.22 121.64 53.47 C 120.31 54.42 118.45 52.26 119.33 51.01 Z" />
<path fill="#5353cd" d=" M 65.08 57.61 C 64.04 56.58 65.53 54.35 66.86 55.17 C 67.90 56.21 66.40 58.41 65.08 57.61 Z" />
<path fill="#5756cd" d=" M 123.19 55.19 C 124.51 54.38 126.04 56.59 124.98 57.62 C 123.66 58.40 122.14 56.23 123.19 55.19 Z" />
<path fill="#635fcd" d=" M 62.30 59.29 C 64.08 59.31 63.34 62.02 61.91 62.02 C 60.11 62.03 60.87 59.28 62.30 59.29 Z" />
<path fill="#615fcd" d=" M 127.04 59.50 C 128.33 58.60 129.90 60.76 128.85 61.82 C 127.57 62.70 125.95 60.54 127.04 59.50 Z" />
<path fill="#00ff00" d=" M 63.60 122.56 C 63.03 117.09 67.02 113.24 70.80 110.01 C 69.55 112.59 68.29 115.18 67.31 117.88 C 69.10 119.98 71.47 121.98 71.80 124.90 C 72.59 128.84 72.34 132.86 72.26 136.84 L 72.72 136.84 C 72.65 131.13 71.95 124.10 77.36 120.43 L 77.37 121.32 C 74.50 127.06 74.96 133.61 75.18 139.83 C 73.00 138.31 72.97 141.07 71.92 142.09 C 71.33 142.62 70.16 143.67 69.58 144.20 C 69.20 136.34 70.80 127.99 67.13 120.66 C 66.20 125.89 67.35 131.18 67.56 136.42 C 67.04 136.11 65.99 135.48 65.46 135.17 C 65.21 136.57 64.94 137.96 64.65 139.36 C 63.88 133.25 64.20 126.79 60.95 121.30 C 56.37 126.79 57.20 134.25 56.72 140.90 C 55.72 142.01 54.71 143.13 53.68 144.22 C 53.79 136.92 52.93 129.19 48.07 123.38 C 49.93 124.78 51.79 126.17 53.69 127.53 C 53.27 123.38 51.63 119.55 50.07 115.74 C 52.73 118.46 55.48 121.54 55.68 125.55 C 56.92 123.40 58.32 121.35 59.82 119.38 C 61.09 120.43 62.35 121.48 63.60 122.56 Z" />
<path fill="#00ff00" d=" M 112.95 125.83 C 113.52 122.91 115.99 120.95 117.96 118.93 C 116.75 121.59 115.55 124.26 114.60 127.04 C 115.73 126.25 116.85 125.47 117.98 124.68 C 114.36 129.67 114.04 135.89 114.06 141.83 C 112.57 140.55 110.88 140.06 109.13 141.36 C 109.22 137.24 109.98 133.07 112.20 129.53 C 112.44 128.30 112.69 127.06 112.95 125.83 Z" />
<path fill="#91ff91" d=" M 98.58 125.39 C 101.64 123.82 104.47 121.85 107.07 119.61 C 105.45 122.17 103.89 124.77 102.37 127.39 C 102.03 126.84 101.35 125.72 101.01 125.17 C 100.16 126.53 99.33 127.92 98.55 129.33 C 98.60 128.01 98.59 126.70 98.58 125.39 Z" />
<path fill="#00ff00" d=" M 138.84 129.23 C 138.42 126.00 137.23 122.97 136.28 119.88 C 137.86 121.70 139.61 123.55 140.29 125.94 C 140.18 129.11 139.79 132.27 139.41 135.42 C 138.79 133.39 138.00 131.42 136.87 129.63 C 136.45 132.84 136.31 136.12 135.33 139.23 C 134.34 133.63 136.34 126.14 131.23 122.22 C 127.35 124.60 128.32 130.52 128.41 134.48 C 128.58 134.86 128.91 135.62 129.08 136.00 C 129.24 137.68 129.28 139.36 129.19 141.06 C 124.41 140.53 126.40 134.65 124.87 131.45 C 120.78 135.81 121.12 142.08 120.57 147.61 C 117.97 145.47 118.51 141.95 118.17 138.96 C 118.08 136.48 117.01 134.20 116.04 131.96 L 117.79 132.85 C 119.76 129.90 121.58 126.85 123.78 124.05 C 122.51 127.31 121.38 130.62 120.71 134.05 C 121.93 133.25 123.14 132.42 124.37 131.63 C 124.37 130.77 124.38 129.92 124.38 129.07 C 124.84 129.56 125.77 130.54 126.24 131.03 C 125.88 129.33 125.47 127.65 125.06 125.96 C 125.43 126.33 126.19 127.05 126.56 127.41 C 127.65 125.35 128.94 123.40 129.83 121.24 C 134.64 120.80 135.42 127.00 138.84 129.23 Z" />
<path fill="#ffffff" d=" M 79.83 121.06 C 81.91 122.60 83.45 124.72 85.01 126.75 C 84.67 126.44 84.01 125.83 83.68 125.53 C 82.30 124.12 81.09 122.57 79.83 121.06 Z" />
<path fill="#ffffff" d=" M 95.28 121.26 C 96.59 120.85 98.90 122.19 98.50 123.70 C 97.16 124.44 94.80 122.76 95.28 121.26 Z" />
<path fill="#00ff00" d=" M 43.58 123.17 C 43.84 123.27 44.36 123.49 44.61 123.59 C 48.91 128.08 48.37 134.69 48.01 140.40 C 46.65 137.33 45.60 134.04 43.38 131.44 C 44.46 131.65 45.54 131.87 46.62 132.08 C 46.23 130.63 45.83 129.18 45.40 127.74 C 44.96 126.16 44.29 124.65 43.58 123.17 Z" />
<path fill="#00ff00" d=" M 83.68 125.53 C 84.01 125.83 84.67 126.44 85.01 126.75 C 85.43 127.16 85.86 127.57 86.29 127.99 C 86.97 128.84 87.64 129.70 88.30 130.57 C 88.62 131.84 88.98 133.10 89.30 134.38 C 89.84 133.57 90.92 131.97 91.45 131.16 C 91.43 132.11 91.40 134.01 91.38 134.96 C 90.42 136.13 89.92 137.50 89.88 139.07 C 90.38 138.43 91.38 137.14 91.88 136.50 C 92.28 136.40 93.08 136.21 93.48 136.11 C 92.82 137.51 92.29 138.96 91.87 140.46 C 92.89 138.99 93.66 137.39 94.48 135.82 C 96.02 138.35 96.36 141.31 96.82 144.18 C 95.16 144.18 93.50 144.18 91.84 144.17 C 91.72 142.95 91.58 141.74 91.41 140.53 C 90.77 144.03 90.38 147.57 90.08 151.11 C 89.15 151.97 88.22 152.84 87.29 153.71 C 87.13 149.11 87.04 144.42 85.47 140.04 C 85.09 138.41 84.06 136.87 84.16 135.16 C 85.48 135.01 86.19 136.44 87.23 137.01 C 87.03 135.52 86.80 134.05 86.52 132.58 C 86.24 131.11 85.35 129.84 84.72 128.52 C 84.68 128.46 84.62 128.34 84.59 128.29 C 84.36 127.60 83.90 126.22 83.68 125.53 Z" />
<path fill="#00ff00" d=" M 98.55 129.33 C 99.33 127.92 100.16 126.53 101.01 125.17 C 101.35 125.72 102.03 126.84 102.37 127.39 C 103.29 128.89 104.25 130.35 105.21 131.83 C 105.68 134.15 105.92 136.50 106.26 138.84 C 106.45 138.25 106.56 137.64 106.71 137.04 C 106.66 135.63 106.61 134.22 106.58 132.82 C 106.91 132.46 107.59 131.75 107.92 131.39 C 108.38 130.93 109.30 130.02 109.76 129.56 L 110.39 129.35 C 107.94 135.14 107.52 141.49 108.38 147.67 C 107.85 147.35 106.77 146.70 106.23 146.38 C 106.25 147.07 106.29 148.45 106.31 149.14 C 105.17 150.02 104.04 150.90 102.90 151.78 C 102.57 144.37 103.88 136.60 101.21 129.50 C 100.02 133.78 99.67 138.55 100.62 142.85 C 101.02 139.68 100.69 136.46 100.95 133.28 L 102.18 133.30 C 102.11 136.77 102.40 140.29 101.58 143.69 L 101.17 144.17 C 100.23 146.27 101.22 148.59 101.37 150.76 C 100.50 150.94 98.77 151.30 97.91 151.47 C 97.66 146.37 97.45 141.14 95.58 136.31 C 96.87 134.45 97.56 132.29 98.23 130.15 C 98.31 129.94 98.47 129.53 98.55 129.33 Z" />
<path fill="#91ff91" d=" M 112.08 126.54 L 112.95 125.83 C 112.69 127.06 112.44 128.30 112.20 129.53 C 109.98 133.07 109.22 137.24 109.13 141.36 L 109.10 141.72 C 108.88 143.93 108.68 146.14 108.45 148.35 C 108.43 148.18 108.40 147.84 108.38 147.67 C 107.52 141.49 107.94 135.14 110.39 129.35 L 109.76 129.56 L 107.96 130.02 C 109.30 128.82 110.67 127.66 112.08 126.54 Z" />
<path fill="#32ff32" d=" M 140.29 125.94 C 140.41 127.18 140.54 128.42 140.66 129.66 L 141.44 129.47 C 142.11 128.55 143.44 126.71 144.11 125.79 C 143.81 126.79 143.21 128.78 142.91 129.78 L 144.68 129.25 C 142.99 132.23 142.62 135.65 142.62 139.00 C 142.12 137.37 140.91 136.43 139.34 135.94 L 139.41 135.42 C 139.79 132.27 140.18 129.11 140.29 125.94 Z" />
<path fill="#91ff91" d=" M 45.40 127.74 C 45.83 129.18 46.23 130.63 46.62 132.08 C 45.54 131.87 44.46 131.65 43.38 131.44 C 42.55 130.74 41.73 130.02 40.88 129.34 C 42.53 129.76 44.17 130.18 45.81 130.63 C 45.71 129.91 45.51 128.47 45.40 127.74 Z" />
<path fill="#91ff91" d=" M 59.35 141.12 C 59.02 136.72 59.01 132.30 59.20 127.89 C 59.98 129.24 60.75 130.59 61.52 131.95 C 61.57 131.12 61.67 129.48 61.72 128.65 L 62.95 129.86 C 63.61 133.91 61.30 137.73 59.35 141.12 Z" />
<path fill="#97ffb1" d=" M 84.59 128.29 C 84.62 128.34 84.68 128.46 84.72 128.52 L 84.63 128.43 L 84.59 128.29 Z" />
<path fill="#00ff00" d=" M 128.94 131.16 C 129.43 129.41 131.15 128.42 132.32 127.16 C 131.42 129.25 130.51 131.35 129.97 133.57 C 128.76 134.04 127.93 131.93 128.94 131.16 Z" />
<path fill="#0dff0d" d=" M 49.24 142.92 C 48.94 138.45 47.69 132.72 51.28 129.27 C 51.64 130.53 48.58 134.06 51.66 133.50 C 50.50 136.54 49.73 139.70 49.24 142.92 Z" />
<path fill="#ffffff" d=" M 105.21 131.83 C 105.89 131.72 107.24 131.50 107.92 131.39 C 107.59 131.75 106.91 132.46 106.58 132.82 C 106.61 134.22 106.66 135.63 106.71 137.04 C 106.56 137.64 106.45 138.25 106.26 138.84 C 105.92 136.50 105.68 134.15 105.21 131.83 Z" />
<path fill="#0dff0d" d=" M 77.75 131.18 C 79.57 132.65 83.57 134.00 82.82 136.83 C 81.32 136.94 80.66 135.12 79.55 134.39 C 78.94 133.33 78.33 132.26 77.75 131.18 Z" />
<path fill="#00ff00" d=" M 93.17 134.81 C 91.48 135.63 91.65 132.28 93.20 132.62 C 93.20 133.17 93.18 134.26 93.17 134.81 Z" />
<path fill="#0dff0d" d=" M 77.46 140.97 C 78.07 138.79 77.63 136.09 79.53 134.49 C 79.40 135.37 79.13 137.14 78.99 138.03 C 79.47 137.49 80.44 136.42 80.92 135.88 C 81.56 137.25 82.12 138.65 82.59 140.09 C 83.01 141.80 83.45 143.51 83.79 145.24 C 83.89 147.39 83.64 149.53 83.53 151.67 C 82.51 152.36 81.48 153.05 80.46 153.74 C 79.42 149.48 79.81 144.86 77.46 140.97 Z" />
<path fill="#c7ffc7" d=" M 80.53 143.77 C 79.03 143.08 78.79 139.13 80.79 139.50 C 80.89 140.16 81.09 141.47 81.20 142.12 C 81.03 142.53 80.70 143.36 80.53 143.77 Z" />
<path fill="#61ff61" d=" M 82.52 139.19 C 82.85 139.15 83.52 139.05 83.86 139.01 C 84.04 139.75 84.41 141.23 84.59 141.96 L 85.80 142.20 C 85.14 143.21 84.47 144.23 83.79 145.24 C 83.45 143.51 83.01 141.80 82.59 140.09 L 82.52 139.19 Z" />
<path fill="#5cff5c" d=" M 81.20 142.12 L 81.50 141.40 C 82.02 143.97 81.99 146.59 81.68 149.19 C 81.23 147.41 80.44 145.63 80.53 143.77 C 80.70 143.36 81.03 142.53 81.20 142.12 Z" />
</svg>
